<svg xmlns="http://www.w3.org/2000/svg" width="1600" height="1200" viewBox="0 0 1600 1200">
<defs><linearGradient id="sky" x1="0" y1="0" x2="0" y2="620" gradientUnits="userSpaceOnUse"><stop offset="0%" stop-color="#cdd8bf"/><stop offset="50%" stop-color="#9db183"/><stop offset="100%" stop-color="#5f7a4c"/></linearGradient><linearGradient id="water" x1="0" y1="620" x2="0" y2="1200" gradientUnits="userSpaceOnUse"><stop offset="0%" stop-color="#3f5236"/><stop offset="100%" stop-color="#243019"/></linearGradient></defs>
<rect width="1600" height="620" fill="url(#sky)"/>
<rect y="620" width="1600" height="580" fill="url(#water)"/>
<circle cx="0" cy="650" r="6" fill="#7c9a5a" opacity="0.5"/><circle cx="213" cy="787" r="13" fill="#7c9a5a" opacity="0.5"/><circle cx="426" cy="924" r="10" fill="#7c9a5a" opacity="0.5"/><circle cx="639" cy="1061" r="7" fill="#7c9a5a" opacity="0.5"/><circle cx="852" cy="678" r="14" fill="#7c9a5a" opacity="0.5"/><circle cx="1065" cy="815" r="11" fill="#7c9a5a" opacity="0.5"/><circle cx="1278" cy="952" r="8" fill="#7c9a5a" opacity="0.5"/><circle cx="1491" cy="1089" r="15" fill="#7c9a5a" opacity="0.5"/><circle cx="104" cy="706" r="12" fill="#7c9a5a" opacity="0.5"/><circle cx="317" cy="843" r="9" fill="#7c9a5a" opacity="0.5"/><circle cx="530" cy="980" r="6" fill="#7c9a5a" opacity="0.5"/><circle cx="743" cy="1117" r="13" fill="#7c9a5a" opacity="0.5"/><circle cx="956" cy="734" r="10" fill="#7c9a5a" opacity="0.5"/><circle cx="1169" cy="871" r="7" fill="#7c9a5a" opacity="0.5"/><circle cx="1382" cy="1008" r="14" fill="#7c9a5a" opacity="0.5"/><circle cx="1595" cy="1145" r="11" fill="#7c9a5a" opacity="0.5"/><circle cx="208" cy="762" r="8" fill="#7c9a5a" opacity="0.5"/><circle cx="421" cy="899" r="15" fill="#7c9a5a" opacity="0.5"/><circle cx="634" cy="1036" r="12" fill="#7c9a5a" opacity="0.5"/><circle cx="847" cy="653" r="9" fill="#7c9a5a" opacity="0.5"/><circle cx="1060" cy="790" r="6" fill="#7c9a5a" opacity="0.5"/><circle cx="1273" cy="927" r="13" fill="#7c9a5a" opacity="0.5"/><circle cx="1486" cy="1064" r="10" fill="#7c9a5a" opacity="0.5"/><circle cx="99" cy="681" r="7" fill="#7c9a5a" opacity="0.5"/><circle cx="312" cy="818" r="14" fill="#7c9a5a" opacity="0.5"/><circle cx="525" cy="955" r="11" fill="#7c9a5a" opacity="0.5"/><circle cx="738" cy="1092" r="8" fill="#7c9a5a" opacity="0.5"/><circle cx="951" cy="709" r="15" fill="#7c9a5a" opacity="0.5"/><circle cx="1164" cy="846" r="12" fill="#7c9a5a" opacity="0.5"/><circle cx="1377" cy="983" r="9" fill="#7c9a5a" opacity="0.5"/><circle cx="1590" cy="1120" r="6" fill="#7c9a5a" opacity="0.5"/><circle cx="203" cy="737" r="13" fill="#7c9a5a" opacity="0.5"/><circle cx="416" cy="874" r="10" fill="#7c9a5a" opacity="0.5"/><circle cx="629" cy="1011" r="7" fill="#7c9a5a" opacity="0.5"/><circle cx="842" cy="1148" r="14" fill="#7c9a5a" opacity="0.5"/><circle cx="1055" cy="765" r="11" fill="#7c9a5a" opacity="0.5"/><circle cx="1268" cy="902" r="8" fill="#7c9a5a" opacity="0.5"/><circle cx="1481" cy="1039" r="15" fill="#7c9a5a" opacity="0.5"/><circle cx="94" cy="656" r="12" fill="#7c9a5a" opacity="0.5"/><circle cx="307" cy="793" r="9" fill="#7c9a5a" opacity="0.5"/><circle cx="520" cy="930" r="6" fill="#7c9a5a" opacity="0.5"/><circle cx="733" cy="1067" r="13" fill="#7c9a5a" opacity="0.5"/><circle cx="946" cy="684" r="10" fill="#7c9a5a" opacity="0.5"/><circle cx="1159" cy="821" r="7" fill="#7c9a5a" opacity="0.5"/><circle cx="1372" cy="958" r="14" fill="#7c9a5a" opacity="0.5"/><circle cx="1585" cy="1095" r="11" fill="#7c9a5a" opacity="0.5"/><circle cx="198" cy="712" r="8" fill="#7c9a5a" opacity="0.5"/><circle cx="411" cy="849" r="15" fill="#7c9a5a" opacity="0.5"/><circle cx="624" cy="986" r="12" fill="#7c9a5a" opacity="0.5"/><circle cx="837" cy="1123" r="9" fill="#7c9a5a" opacity="0.5"/><circle cx="1050" cy="740" r="6" fill="#7c9a5a" opacity="0.5"/><circle cx="1263" cy="877" r="13" fill="#7c9a5a" opacity="0.5"/><circle cx="1476" cy="1014" r="10" fill="#7c9a5a" opacity="0.5"/><circle cx="89" cy="1151" r="7" fill="#7c9a5a" opacity="0.5"/><circle cx="302" cy="768" r="14" fill="#7c9a5a" opacity="0.5"/><circle cx="515" cy="905" r="11" fill="#7c9a5a" opacity="0.5"/><circle cx="728" cy="1042" r="8" fill="#7c9a5a" opacity="0.5"/><circle cx="941" cy="659" r="15" fill="#7c9a5a" opacity="0.5"/><circle cx="1154" cy="796" r="12" fill="#7c9a5a" opacity="0.5"/><circle cx="1367" cy="933" r="9" fill="#7c9a5a" opacity="0.5"/><circle cx="1580" cy="1070" r="6" fill="#7c9a5a" opacity="0.5"/><circle cx="193" cy="687" r="13" fill="#7c9a5a" opacity="0.5"/><circle cx="406" cy="824" r="10" fill="#7c9a5a" opacity="0.5"/><circle cx="619" cy="961" r="7" fill="#7c9a5a" opacity="0.5"/><circle cx="832" cy="1098" r="14" fill="#7c9a5a" opacity="0.5"/><circle cx="1045" cy="715" r="11" fill="#7c9a5a" opacity="0.5"/><circle cx="1258" cy="852" r="8" fill="#7c9a5a" opacity="0.5"/><circle cx="1471" cy="989" r="15" fill="#7c9a5a" opacity="0.5"/><circle cx="84" cy="1126" r="12" fill="#7c9a5a" opacity="0.5"/><circle cx="297" cy="743" r="9" fill="#7c9a5a" opacity="0.5"/><circle cx="510" cy="880" r="6" fill="#7c9a5a" opacity="0.5"/><circle cx="723" cy="1017" r="13" fill="#7c9a5a" opacity="0.5"/><circle cx="936" cy="1154" r="10" fill="#7c9a5a" opacity="0.5"/><circle cx="1149" cy="771" r="7" fill="#7c9a5a" opacity="0.5"/><circle cx="1362" cy="908" r="14" fill="#7c9a5a" opacity="0.5"/><circle cx="1575" cy="1045" r="11" fill="#7c9a5a" opacity="0.5"/><circle cx="188" cy="662" r="8" fill="#7c9a5a" opacity="0.5"/><circle cx="401" cy="799" r="15" fill="#7c9a5a" opacity="0.5"/><circle cx="614" cy="936" r="12" fill="#7c9a5a" opacity="0.5"/><circle cx="827" cy="1073" r="9" fill="#7c9a5a" opacity="0.5"/><circle cx="1040" cy="690" r="6" fill="#7c9a5a" opacity="0.5"/><circle cx="1253" cy="827" r="13" fill="#7c9a5a" opacity="0.5"/><circle cx="1466" cy="964" r="10" fill="#7c9a5a" opacity="0.5"/><circle cx="79" cy="1101" r="7" fill="#7c9a5a" opacity="0.5"/><circle cx="292" cy="718" r="14" fill="#7c9a5a" opacity="0.5"/><circle cx="505" cy="855" r="11" fill="#7c9a5a" opacity="0.5"/><circle cx="718" cy="992" r="8" fill="#7c9a5a" opacity="0.5"/><circle cx="931" cy="1129" r="15" fill="#7c9a5a" opacity="0.5"/><circle cx="1144" cy="746" r="12" fill="#7c9a5a" opacity="0.5"/><circle cx="1357" cy="883" r="9" fill="#7c9a5a" opacity="0.5"/><circle cx="1570" cy="1020" r="6" fill="#7c9a5a" opacity="0.5"/><circle cx="183" cy="1157" r="13" fill="#7c9a5a" opacity="0.5"/><circle cx="396" cy="774" r="10" fill="#7c9a5a" opacity="0.5"/><circle cx="609" cy="911" r="7" fill="#7c9a5a" opacity="0.5"/><circle cx="822" cy="1048" r="14" fill="#7c9a5a" opacity="0.5"/><circle cx="1035" cy="665" r="11" fill="#7c9a5a" opacity="0.5"/><circle cx="1248" cy="802" r="8" fill="#7c9a5a" opacity="0.5"/><circle cx="1461" cy="939" r="15" fill="#7c9a5a" opacity="0.5"/><circle cx="74" cy="1076" r="12" fill="#7c9a5a" opacity="0.5"/><circle cx="287" cy="693" r="9" fill="#7c9a5a" opacity="0.5"/><circle cx="500" cy="830" r="6" fill="#7c9a5a" opacity="0.5"/><circle cx="713" cy="967" r="13" fill="#7c9a5a" opacity="0.5"/><circle cx="926" cy="1104" r="10" fill="#7c9a5a" opacity="0.5"/><circle cx="1139" cy="721" r="7" fill="#7c9a5a" opacity="0.5"/><circle cx="1352" cy="858" r="14" fill="#7c9a5a" opacity="0.5"/><circle cx="1565" cy="995" r="11" fill="#7c9a5a" opacity="0.5"/><circle cx="178" cy="1132" r="8" fill="#7c9a5a" opacity="0.5"/><circle cx="391" cy="749" r="15" fill="#7c9a5a" opacity="0.5"/><circle cx="604" cy="886" r="12" fill="#7c9a5a" opacity="0.5"/><circle cx="817" cy="1023" r="9" fill="#7c9a5a" opacity="0.5"/><circle cx="1030" cy="1160" r="6" fill="#7c9a5a" opacity="0.5"/><circle cx="1243" cy="777" r="13" fill="#7c9a5a" opacity="0.5"/><circle cx="1456" cy="914" r="10" fill="#7c9a5a" opacity="0.5"/><circle cx="69" cy="1051" r="7" fill="#7c9a5a" opacity="0.5"/><circle cx="282" cy="668" r="14" fill="#7c9a5a" opacity="0.5"/><circle cx="495" cy="805" r="11" fill="#7c9a5a" opacity="0.5"/><circle cx="708" cy="942" r="8" fill="#7c9a5a" opacity="0.5"/><circle cx="921" cy="1079" r="15" fill="#7c9a5a" opacity="0.5"/><circle cx="1134" cy="696" r="12" fill="#7c9a5a" opacity="0.5"/><circle cx="1347" cy="833" r="9" fill="#7c9a5a" opacity="0.5"/><g fill="#26301a">
      <ellipse cx="700" cy="870" rx="260" ry="34"/>
      <path d="M 460 870 l -120 -14 l 120 22 Z"/>
      <ellipse cx="960" cy="864" rx="90" ry="26"/>
      <circle cx="1010" cy="850" r="12" fill="#c9b24a"/>
      <circle cx="1010" cy="850" r="5" fill="#26301a"/>
    </g>
    <g fill="#3a4a28">
      <path d="M 620 840 l 16 -22 l 16 22 Z"/>
      <path d="M 680 838 l 16 -24 l 16 24 Z"/>
      <path d="M 740 840 l 16 -22 l 16 22 Z"/>
    </g>
<rect width="1600" height="1200" fill="none"/>
</svg>