<svg xmlns="http://www.w3.org/2000/svg" width="1600" height="1200" viewBox="0 0 1600 1200">
<defs><linearGradient id="sky" x1="0" y1="0" x2="0" y2="620" gradientUnits="userSpaceOnUse"><stop offset="0%" stop-color="#f6ecc9"/><stop offset="50%" stop-color="#e3cf94"/><stop offset="100%" stop-color="#b79a5e"/></linearGradient><linearGradient id="water" x1="0" y1="620" x2="0" y2="1200" gradientUnits="userSpaceOnUse"><stop offset="0%" stop-color="#b79a5e"/><stop offset="100%" stop-color="#7c6636"/></linearGradient><radialGradient id="glow"><stop offset="0%" stop-color="#fff6da" stop-opacity="0.95"/><stop offset="100%" stop-color="#fff6da" stop-opacity="0"/></radialGradient></defs>
<rect width="1600" height="620" fill="url(#sky)"/>
<rect y="620" width="1600" height="580" fill="url(#water)"/>
<circle cx="800" cy="330" r="180" fill="url(#glow)"/><circle cx="800" cy="330" r="60" fill="#fff6da"/><rect x="770" y="620" width="60" height="580" fill="#fff6da" opacity="0.18"/><rect x="260" y="470" width="26" height="150" fill="#3a4a2e"/><ellipse cx="273" cy="470" rx="44.199999999999996" ry="28.6" fill="#3a4a2e"/><rect x="260" y="620" width="26" height="120" fill="#3a4a2e" opacity="0.35"/><rect x="470" y="417" width="34" height="203" fill="#3a4a2e"/><ellipse cx="487" cy="417" rx="57.8" ry="37.400000000000006" fill="#3a4a2e"/><rect x="470" y="620" width="34" height="162.4" fill="#3a4a2e" opacity="0.35"/><rect x="720" y="454" width="42" height="166" fill="#3a4a2e"/><ellipse cx="741" cy="454" rx="71.39999999999999" ry="46.2" fill="#3a4a2e"/><rect x="720" y="620" width="42" height="132.8" fill="#3a4a2e" opacity="0.35"/><rect x="980" y="401" width="26" height="219" fill="#3a4a2e"/><ellipse cx="993" cy="401" rx="44.199999999999996" ry="28.6" fill="#3a4a2e"/><rect x="980" y="620" width="26" height="175.20000000000002" fill="#3a4a2e" opacity="0.35"/><rect x="1230" y="438" width="34" height="182" fill="#3a4a2e"/><ellipse cx="1247" cy="438" rx="57.8" ry="37.400000000000006" fill="#3a4a2e"/><rect x="1230" y="620" width="34" height="145.6" fill="#3a4a2e" opacity="0.35"/><rect x="1420" y="385" width="42" height="235" fill="#3a4a2e"/><ellipse cx="1441" cy="385" rx="71.39999999999999" ry="46.2" fill="#3a4a2e"/><rect x="1420" y="620" width="42" height="188" fill="#3a4a2e" opacity="0.35"/>
<rect width="1600" height="1200" fill="none"/>
</svg>