<svg xmlns="http://www.w3.org/2000/svg" width="1600" height="1200" viewBox="0 0 1600 1200">
<defs><linearGradient id="sky" x1="0" y1="0" x2="0" y2="620" gradientUnits="userSpaceOnUse"><stop offset="0%" stop-color="#c4cdd4"/><stop offset="50%" stop-color="#8f9ba6"/><stop offset="100%" stop-color="#5c6873"/></linearGradient><linearGradient id="water" x1="0" y1="620" x2="0" y2="1200" gradientUnits="userSpaceOnUse"><stop offset="0%" stop-color="#6b7883"/><stop offset="100%" stop-color="#3f4a54"/></linearGradient></defs>
<rect width="1600" height="620" fill="url(#sky)"/>
<rect y="620" width="1600" height="580" fill="url(#water)"/>
<line x1="0" y1="60" x2="-18" y2="106" stroke="#e9edf0" stroke-width="2" opacity="0.35"/><line x1="137" y1="151" x2="119" y2="197" stroke="#e9edf0" stroke-width="2" opacity="0.35"/><line x1="274" y1="242" x2="256" y2="288" stroke="#e9edf0" stroke-width="2" opacity="0.35"/><line x1="411" y1="333" x2="393" y2="379" stroke="#e9edf0" stroke-width="2" opacity="0.35"/><line x1="548" y1="424" x2="530" y2="470" stroke="#e9edf0" stroke-width="2" opacity="0.35"/><line x1="685" y1="515" x2="667" y2="561" stroke="#e9edf0" stroke-width="2" opacity="0.35"/><line x1="822" y1="66" x2="804" y2="112" stroke="#e9edf0" stroke-width="2" opacity="0.35"/><line x1="959" y1="157" x2="941" y2="203" stroke="#e9edf0" stroke-width="2" opacity="0.35"/><line x1="1096" y1="248" x2="1078" y2="294" stroke="#e9edf0" stroke-width="2" opacity="0.35"/><line x1="1233" y1="339" x2="1215" y2="385" stroke="#e9edf0" stroke-width="2" opacity="0.35"/><line x1="1370" y1="430" x2="1352" y2="476" stroke="#e9edf0" stroke-width="2" opacity="0.35"/><line x1="1507" y1="521" x2="1489" y2="567" stroke="#e9edf0" stroke-width="2" opacity="0.35"/><line x1="44" y1="72" x2="26" y2="118" stroke="#e9edf0" stroke-width="2" opacity="0.35"/><line x1="181" y1="163" x2="163" y2="209" stroke="#e9edf0" stroke-width="2" opacity="0.35"/><line x1="318" y1="254" x2="300" y2="300" stroke="#e9edf0" stroke-width="2" opacity="0.35"/><line x1="455" y1="345" x2="437" y2="391" stroke="#e9edf0" stroke-width="2" opacity="0.35"/><line x1="592" y1="436" x2="574" y2="482" stroke="#e9edf0" stroke-width="2" opacity="0.35"/><line x1="729" y1="527" x2="711" y2="573" stroke="#e9edf0" stroke-width="2" opacity="0.35"/><line x1="866" y1="78" x2="848" y2="124" stroke="#e9edf0" stroke-width="2" opacity="0.35"/><line x1="1003" y1="169" x2="985" y2="215" stroke="#e9edf0" stroke-width="2" opacity="0.35"/><line x1="1140" y1="260" x2="1122" y2="306" stroke="#e9edf0" stroke-width="2" opacity="0.35"/><line x1="1277" y1="351" x2="1259" y2="397" stroke="#e9edf0" stroke-width="2" opacity="0.35"/><line x1="1414" y1="442" x2="1396" y2="488" stroke="#e9edf0" stroke-width="2" opacity="0.35"/><line x1="1551" y1="533" x2="1533" y2="579" stroke="#e9edf0" stroke-width="2" opacity="0.35"/><line x1="88" y1="84" x2="70" y2="130" stroke="#e9edf0" stroke-width="2" opacity="0.35"/><line x1="225" y1="175" x2="207" y2="221" stroke="#e9edf0" stroke-width="2" opacity="0.35"/><line x1="362" y1="266" x2="344" y2="312" stroke="#e9edf0" stroke-width="2" opacity="0.35"/><line x1="499" y1="357" x2="481" y2="403" stroke="#e9edf0" stroke-width="2" opacity="0.35"/><line x1="636" y1="448" x2="618" y2="494" stroke="#e9edf0" stroke-width="2" opacity="0.35"/><line x1="773" y1="539" x2="755" y2="585" stroke="#e9edf0" stroke-width="2" opacity="0.35"/><line x1="910" y1="90" x2="892" y2="136" stroke="#e9edf0" stroke-width="2" opacity="0.35"/><line x1="1047" y1="181" x2="1029" y2="227" stroke="#e9edf0" stroke-width="2" opacity="0.35"/><line x1="1184" y1="272" x2="1166" y2="318" stroke="#e9edf0" stroke-width="2" opacity="0.35"/><line x1="1321" y1="363" x2="1303" y2="409" stroke="#e9edf0" stroke-width="2" opacity="0.35"/><line x1="1458" y1="454" x2="1440" y2="500" stroke="#e9edf0" stroke-width="2" opacity="0.35"/><line x1="1595" y1="545" x2="1577" y2="591" stroke="#e9edf0" stroke-width="2" opacity="0.35"/><line x1="132" y1="96" x2="114" y2="142" stroke="#e9edf0" stroke-width="2" opacity="0.35"/><line x1="269" y1="187" x2="251" y2="233" stroke="#e9edf0" stroke-width="2" opacity="0.35"/><line x1="406" y1="278" x2="388" y2="324" stroke="#e9edf0" stroke-width="2" opacity="0.35"/><line x1="543" y1="369" x2="525" y2="415" stroke="#e9edf0" stroke-width="2" opacity="0.35"/><line x1="680" y1="460" x2="662" y2="506" stroke="#e9edf0" stroke-width="2" opacity="0.35"/><line x1="817" y1="551" x2="799" y2="597" stroke="#e9edf0" stroke-width="2" opacity="0.35"/><line x1="954" y1="102" x2="936" y2="148" stroke="#e9edf0" stroke-width="2" opacity="0.35"/><line x1="1091" y1="193" x2="1073" y2="239" stroke="#e9edf0" stroke-width="2" opacity="0.35"/><line x1="1228" y1="284" x2="1210" y2="330" stroke="#e9edf0" stroke-width="2" opacity="0.35"/><line x1="1365" y1="375" x2="1347" y2="421" stroke="#e9edf0" stroke-width="2" opacity="0.35"/><line x1="1502" y1="466" x2="1484" y2="512" stroke="#e9edf0" stroke-width="2" opacity="0.35"/><line x1="39" y1="557" x2="21" y2="603" stroke="#e9edf0" stroke-width="2" opacity="0.35"/><line x1="176" y1="108" x2="158" y2="154" stroke="#e9edf0" stroke-width="2" opacity="0.35"/><line x1="313" y1="199" x2="295" y2="245" stroke="#e9edf0" stroke-width="2" opacity="0.35"/><line x1="450" y1="290" x2="432" y2="336" stroke="#e9edf0" stroke-width="2" opacity="0.35"/><line x1="587" y1="381" x2="569" y2="427" stroke="#e9edf0" stroke-width="2" opacity="0.35"/><line x1="724" y1="472" x2="706" y2="518" stroke="#e9edf0" stroke-width="2" opacity="0.35"/><line x1="861" y1="563" x2="843" y2="609" stroke="#e9edf0" stroke-width="2" opacity="0.35"/><line x1="998" y1="114" x2="980" y2="160" stroke="#e9edf0" stroke-width="2" opacity="0.35"/><line x1="1135" y1="205" x2="1117" y2="251" stroke="#e9edf0" stroke-width="2" opacity="0.35"/><line x1="1272" y1="296" x2="1254" y2="342" stroke="#e9edf0" stroke-width="2" opacity="0.35"/><line x1="1409" y1="387" x2="1391" y2="433" stroke="#e9edf0" stroke-width="2" opacity="0.35"/><line x1="1546" y1="478" x2="1528" y2="524" stroke="#e9edf0" stroke-width="2" opacity="0.35"/><line x1="83" y1="569" x2="65" y2="615" stroke="#e9edf0" stroke-width="2" opacity="0.35"/><rect x="720" y="0" width="640" height="620" fill="#eef1f3" opacity="0.18"/>
<rect width="1600" height="1200" fill="none"/>
</svg>