<svg xmlns="http://www.w3.org/2000/svg" width="1600" height="1200" viewBox="0 0 1600 1200">
<defs><linearGradient id="sky" x1="0" y1="0" x2="0" y2="620" gradientUnits="userSpaceOnUse"><stop offset="0%" stop-color="#fce9c8"/><stop offset="50%" stop-color="#f6c48b"/><stop offset="100%" stop-color="#e79b6b"/></linearGradient><linearGradient id="water" x1="0" y1="620" x2="0" y2="1200" gradientUnits="userSpaceOnUse"><stop offset="0%" stop-color="#e7a878"/><stop offset="100%" stop-color="#c97f5c"/></linearGradient><radialGradient id="glow"><stop offset="0%" stop-color="#fff2d6" stop-opacity="0.95"/><stop offset="100%" stop-color="#fff2d6" stop-opacity="0"/></radialGradient></defs>
<rect width="1600" height="620" fill="url(#sky)"/>
<rect y="620" width="1600" height="580" fill="url(#water)"/>
<circle cx="800" cy="300" r="210" fill="url(#glow)"/><circle cx="800" cy="300" r="70" fill="#fff2d6"/><rect x="765" y="620" width="70" height="580" fill="#fff2d6" opacity="0.18"/><rect x="0" y="530" width="1600" height="180" fill="#ffffff" opacity="0.28"/><rect x="0" y="580" width="1600" height="90" fill="#ffffff" opacity="0.22"/><path d="M 40 750 Q 48 705 42 660" stroke="#5b4a3a" stroke-width="4" fill="none" stroke-linecap="round" opacity="0.85"/><path d="M 131 750 Q 139 681.5 133 613" stroke="#5b4a3a" stroke-width="4" fill="none" stroke-linecap="round" opacity="0.85"/><path d="M 192 750 Q 200 658 194 566" stroke="#5b4a3a" stroke-width="4" fill="none" stroke-linecap="round" opacity="0.85"/><path d="M 253 750 Q 261 699.5 255 649" stroke="#5b4a3a" stroke-width="4" fill="none" stroke-linecap="round" opacity="0.85"/><path d="M 314 750 Q 322 676 316 602" stroke="#5b4a3a" stroke-width="4" fill="none" stroke-linecap="round" opacity="0.85"/><path d="M 375 750 Q 383 652.5 377 555" stroke="#5b4a3a" stroke-width="4" fill="none" stroke-linecap="round" opacity="0.85"/><path d="M 436 750 Q 444 694 438 638" stroke="#5b4a3a" stroke-width="4" fill="none" stroke-linecap="round" opacity="0.85"/><path d="M 497 750 Q 505 670.5 499 591" stroke="#5b4a3a" stroke-width="4" fill="none" stroke-linecap="round" opacity="0.85"/><path d="M 558 750 Q 566 647 560 544" stroke="#5b4a3a" stroke-width="4" fill="none" stroke-linecap="round" opacity="0.85"/><path d="M 619 750 Q 627 688.5 621 627" stroke="#5b4a3a" stroke-width="4" fill="none" stroke-linecap="round" opacity="0.85"/><path d="M 680 750 Q 688 665 682 580" stroke="#5b4a3a" stroke-width="4" fill="none" stroke-linecap="round" opacity="0.85"/><path d="M 741 750 Q 749 641.5 743 533" stroke="#5b4a3a" stroke-width="4" fill="none" stroke-linecap="round" opacity="0.85"/><path d="M 802 750 Q 810 683 804 616" stroke="#5b4a3a" stroke-width="4" fill="none" stroke-linecap="round" opacity="0.85"/><path d="M 863 750 Q 871 659.5 865 569" stroke="#5b4a3a" stroke-width="4" fill="none" stroke-linecap="round" opacity="0.85"/><path d="M 924 750 Q 932 701 926 652" stroke="#5b4a3a" stroke-width="4" fill="none" stroke-linecap="round" opacity="0.85"/><path d="M 985 750 Q 993 677.5 987 605" stroke="#5b4a3a" stroke-width="4" fill="none" stroke-linecap="round" opacity="0.85"/><path d="M 1046 750 Q 1054 654 1048 558" stroke="#5b4a3a" stroke-width="4" fill="none" stroke-linecap="round" opacity="0.85"/><path d="M 1107 750 Q 1115 695.5 1109 641" stroke="#5b4a3a" stroke-width="4" fill="none" stroke-linecap="round" opacity="0.85"/><path d="M 1168 750 Q 1176 672 1170 594" stroke="#5b4a3a" stroke-width="4" fill="none" stroke-linecap="round" opacity="0.85"/><path d="M 1229 750 Q 1237 648.5 1231 547" stroke="#5b4a3a" stroke-width="4" fill="none" stroke-linecap="round" opacity="0.85"/><path d="M 1290 750 Q 1298 690 1292 630" stroke="#5b4a3a" stroke-width="4" fill="none" stroke-linecap="round" opacity="0.85"/><path d="M 1351 750 Q 1359 666.5 1353 583" stroke="#5b4a3a" stroke-width="4" fill="none" stroke-linecap="round" opacity="0.85"/><path d="M 1412 750 Q 1420 643 1414 536" stroke="#5b4a3a" stroke-width="4" fill="none" stroke-linecap="round" opacity="0.85"/><path d="M 1473 750 Q 1481 684.5 1475 619" stroke="#5b4a3a" stroke-width="4" fill="none" stroke-linecap="round" opacity="0.85"/><path d="M 1534 750 Q 1542 661 1536 572" stroke="#5b4a3a" stroke-width="4" fill="none" stroke-linecap="round" opacity="0.85"/><path d="M 1595 750 Q 1603 702.5 1597 655" stroke="#5b4a3a" stroke-width="4" fill="none" stroke-linecap="round" opacity="0.85"/>
<rect width="1600" height="1200" fill="none"/>
</svg>