<svg xmlns="http://www.w3.org/2000/svg" width="1600" height="1200" viewBox="0 0 1600 1200">
<defs><linearGradient id="sky" x1="0" y1="0" x2="0" y2="620" gradientUnits="userSpaceOnUse"><stop offset="0%" stop-color="#e9c9e6"/><stop offset="50%" stop-color="#d29ac0"/><stop offset="100%" stop-color="#a86f9e"/></linearGradient><linearGradient id="water" x1="0" y1="620" x2="0" y2="1200" gradientUnits="userSpaceOnUse"><stop offset="0%" stop-color="#b47f4f"/><stop offset="100%" stop-color="#7c5432"/></linearGradient><radialGradient id="glow"><stop offset="0%" stop-color="#ffe6c9" stop-opacity="0.95"/><stop offset="100%" stop-color="#ffe6c9" stop-opacity="0"/></radialGradient></defs>
<rect width="1600" height="620" fill="url(#sky)"/>
<rect y="620" width="1600" height="580" fill="url(#water)"/>
<circle cx="800" cy="340" r="198" fill="url(#glow)"/><circle cx="800" cy="340" r="66" fill="#ffe6c9"/><rect x="767" y="620" width="66" height="580" fill="#ffe6c9" opacity="0.18"/><path d="M 40 750 Q 48 705 42 660" stroke="#4a3a2a" stroke-width="4" fill="none" stroke-linecap="round" opacity="0.85"/><path d="M 131 750 Q 139 681.5 133 613" stroke="#4a3a2a" stroke-width="4" fill="none" stroke-linecap="round" opacity="0.85"/><path d="M 192 750 Q 200 658 194 566" stroke="#4a3a2a" stroke-width="4" fill="none" stroke-linecap="round" opacity="0.85"/><path d="M 253 750 Q 261 699.5 255 649" stroke="#4a3a2a" stroke-width="4" fill="none" stroke-linecap="round" opacity="0.85"/><path d="M 314 750 Q 322 676 316 602" stroke="#4a3a2a" stroke-width="4" fill="none" stroke-linecap="round" opacity="0.85"/><path d="M 375 750 Q 383 652.5 377 555" stroke="#4a3a2a" stroke-width="4" fill="none" stroke-linecap="round" opacity="0.85"/><path d="M 436 750 Q 444 694 438 638" stroke="#4a3a2a" stroke-width="4" fill="none" stroke-linecap="round" opacity="0.85"/><path d="M 497 750 Q 505 670.5 499 591" stroke="#4a3a2a" stroke-width="4" fill="none" stroke-linecap="round" opacity="0.85"/><path d="M 558 750 Q 566 647 560 544" stroke="#4a3a2a" stroke-width="4" fill="none" stroke-linecap="round" opacity="0.85"/><path d="M 619 750 Q 627 688.5 621 627" stroke="#4a3a2a" stroke-width="4" fill="none" stroke-linecap="round" opacity="0.85"/><path d="M 680 750 Q 688 665 682 580" stroke="#4a3a2a" stroke-width="4" fill="none" stroke-linecap="round" opacity="0.85"/><path d="M 741 750 Q 749 641.5 743 533" stroke="#4a3a2a" stroke-width="4" fill="none" stroke-linecap="round" opacity="0.85"/><path d="M 802 750 Q 810 683 804 616" stroke="#4a3a2a" stroke-width="4" fill="none" stroke-linecap="round" opacity="0.85"/><path d="M 863 750 Q 871 659.5 865 569" stroke="#4a3a2a" stroke-width="4" fill="none" stroke-linecap="round" opacity="0.85"/><path d="M 924 750 Q 932 701 926 652" stroke="#4a3a2a" stroke-width="4" fill="none" stroke-linecap="round" opacity="0.85"/><path d="M 985 750 Q 993 677.5 987 605" stroke="#4a3a2a" stroke-width="4" fill="none" stroke-linecap="round" opacity="0.85"/><path d="M 1046 750 Q 1054 654 1048 558" stroke="#4a3a2a" stroke-width="4" fill="none" stroke-linecap="round" opacity="0.85"/><path d="M 1107 750 Q 1115 695.5 1109 641" stroke="#4a3a2a" stroke-width="4" fill="none" stroke-linecap="round" opacity="0.85"/><path d="M 1168 750 Q 1176 672 1170 594" stroke="#4a3a2a" stroke-width="4" fill="none" stroke-linecap="round" opacity="0.85"/><path d="M 1229 750 Q 1237 648.5 1231 547" stroke="#4a3a2a" stroke-width="4" fill="none" stroke-linecap="round" opacity="0.85"/><path d="M 1290 750 Q 1298 690 1292 630" stroke="#4a3a2a" stroke-width="4" fill="none" stroke-linecap="round" opacity="0.85"/><path d="M 1351 750 Q 1359 666.5 1353 583" stroke="#4a3a2a" stroke-width="4" fill="none" stroke-linecap="round" opacity="0.85"/><path d="M 1412 750 Q 1420 643 1414 536" stroke="#4a3a2a" stroke-width="4" fill="none" stroke-linecap="round" opacity="0.85"/><path d="M 1473 750 Q 1481 684.5 1475 619" stroke="#4a3a2a" stroke-width="4" fill="none" stroke-linecap="round" opacity="0.85"/><path d="M 1534 750 Q 1542 661 1536 572" stroke="#4a3a2a" stroke-width="4" fill="none" stroke-linecap="round" opacity="0.85"/><path d="M 1595 750 Q 1603 702.5 1597 655" stroke="#4a3a2a" stroke-width="4" fill="none" stroke-linecap="round" opacity="0.85"/><path d="M 120 1200 Q 134 1125 126 1050" stroke="#6b5334" stroke-width="5" fill="none" stroke-linecap="round"/><ellipse cx="126" cy="1050" rx="9" ry="20" fill="#8a6b3f"/><path d="M 216 1200 Q 230 1094.5 222 989" stroke="#6b5334" stroke-width="5" fill="none" stroke-linecap="round"/><ellipse cx="222" cy="989" rx="9" ry="20" fill="#8a6b3f"/><path d="M 312 1200 Q 326 1124 318 1048" stroke="#6b5334" stroke-width="5" fill="none" stroke-linecap="round"/><ellipse cx="318" cy="1048" rx="9" ry="20" fill="#8a6b3f"/><path d="M 408 1200 Q 422 1093.5 414 987" stroke="#6b5334" stroke-width="5" fill="none" stroke-linecap="round"/><ellipse cx="414" cy="987" rx="9" ry="20" fill="#8a6b3f"/><path d="M 504 1200 Q 518 1123 510 1046" stroke="#6b5334" stroke-width="5" fill="none" stroke-linecap="round"/><ellipse cx="510" cy="1046" rx="9" ry="20" fill="#8a6b3f"/><path d="M 600 1200 Q 614 1092.5 606 985" stroke="#6b5334" stroke-width="5" fill="none" stroke-linecap="round"/><ellipse cx="606" cy="985" rx="9" ry="20" fill="#8a6b3f"/><path d="M 696 1200 Q 710 1122 702 1044" stroke="#6b5334" stroke-width="5" fill="none" stroke-linecap="round"/><ellipse cx="702" cy="1044" rx="9" ry="20" fill="#8a6b3f"/><path d="M 792 1200 Q 806 1091.5 798 983" stroke="#6b5334" stroke-width="5" fill="none" stroke-linecap="round"/><ellipse cx="798" cy="983" rx="9" ry="20" fill="#8a6b3f"/><path d="M 888 1200 Q 902 1121 894 1042" stroke="#6b5334" stroke-width="5" fill="none" stroke-linecap="round"/><ellipse cx="894" cy="1042" rx="9" ry="20" fill="#8a6b3f"/><path d="M 984 1200 Q 998 1090.5 990 981" stroke="#6b5334" stroke-width="5" fill="none" stroke-linecap="round"/><ellipse cx="990" cy="981" rx="9" ry="20" fill="#8a6b3f"/><path d="M 1080 1200 Q 1094 1120 1086 1040" stroke="#6b5334" stroke-width="5" fill="none" stroke-linecap="round"/><ellipse cx="1086" cy="1040" rx="9" ry="20" fill="#8a6b3f"/><path d="M 1176 1200 Q 1190 1089.5 1182 979" stroke="#6b5334" stroke-width="5" fill="none" stroke-linecap="round"/><ellipse cx="1182" cy="979" rx="9" ry="20" fill="#8a6b3f"/><path d="M 1272 1200 Q 1286 1119 1278 1038" stroke="#6b5334" stroke-width="5" fill="none" stroke-linecap="round"/><ellipse cx="1278" cy="1038" rx="9" ry="20" fill="#8a6b3f"/><path d="M 1368 1200 Q 1382 1088.5 1374 977" stroke="#6b5334" stroke-width="5" fill="none" stroke-linecap="round"/><ellipse cx="1374" cy="977" rx="9" ry="20" fill="#8a6b3f"/><path d="M 1464 1200 Q 1478 1118 1470 1036" stroke="#6b5334" stroke-width="5" fill="none" stroke-linecap="round"/><ellipse cx="1470" cy="1036" rx="9" ry="20" fill="#8a6b3f"/><path d="M 1560 1200 Q 1574 1087.5 1566 975" stroke="#6b5334" stroke-width="5" fill="none" stroke-linecap="round"/><ellipse cx="1566" cy="975" rx="9" ry="20" fill="#8a6b3f"/>
<rect width="1600" height="1200" fill="none"/>
</svg>