<svg xmlns="http://www.w3.org/2000/svg" width="1600" height="1200" viewBox="0 0 1600 1200">
<defs><linearGradient id="sky" x1="0" y1="0" x2="0" y2="620" gradientUnits="userSpaceOnUse"><stop offset="0%" stop-color="#fde4ec"/><stop offset="50%" stop-color="#f6bcd2"/><stop offset="100%" stop-color="#ef93b6"/></linearGradient><linearGradient id="water" x1="0" y1="620" x2="0" y2="1200" gradientUnits="userSpaceOnUse"><stop offset="0%" stop-color="#f0a9c5"/><stop offset="100%" stop-color="#cf7fa0"/></linearGradient><radialGradient id="glow"><stop offset="0%" stop-color="#fff0f6" stop-opacity="0.95"/><stop offset="100%" stop-color="#fff0f6" stop-opacity="0"/></radialGradient></defs>
<rect width="1600" height="620" fill="url(#sky)"/>
<rect y="620" width="1600" height="580" fill="url(#water)"/>
<circle cx="800" cy="260" r="180" fill="url(#glow)"/><circle cx="800" cy="260" r="60" fill="#fff0f6"/><rect x="770" y="620" width="60" height="580" fill="#fff0f6" opacity="0.18"/><g transform="translate(360,300)"><ellipse cx="0" cy="0" rx="46" ry="16" fill="#e56b96"/><ellipse cx="34" cy="-10" rx="16" ry="12" fill="#e56b96"/><line x1="46" y1="-8" x2="78" y2="4" stroke="#e56b96" stroke-width="6"/><line x1="-6" y1="14" x2="-6" y2="880" stroke="#e56b96" stroke-width="4" opacity="0.8"/><line x1="10" y1="14" x2="10" y2="880" stroke="#e56b96" stroke-width="4" opacity="0.8"/></g><g transform="translate(520,360)"><ellipse cx="0" cy="0" rx="46" ry="16" fill="#e56b96"/><ellipse cx="34" cy="-10" rx="16" ry="12" fill="#e56b96"/><line x1="46" y1="-8" x2="78" y2="4" stroke="#e56b96" stroke-width="6"/><line x1="-6" y1="14" x2="-6" y2="820" stroke="#e56b96" stroke-width="4" opacity="0.8"/><line x1="10" y1="14" x2="10" y2="820" stroke="#e56b96" stroke-width="4" opacity="0.8"/></g><g transform="translate(700,320)"><ellipse cx="0" cy="0" rx="46" ry="16" fill="#e56b96"/><ellipse cx="34" cy="-10" rx="16" ry="12" fill="#e56b96"/><line x1="46" y1="-8" x2="78" y2="4" stroke="#e56b96" stroke-width="6"/><line x1="-6" y1="14" x2="-6" y2="860" stroke="#e56b96" stroke-width="4" opacity="0.8"/><line x1="10" y1="14" x2="10" y2="860" stroke="#e56b96" stroke-width="4" opacity="0.8"/></g><g transform="translate(900,380)"><ellipse cx="0" cy="0" rx="46" ry="16" fill="#e56b96"/><ellipse cx="34" cy="-10" rx="16" ry="12" fill="#e56b96"/><line x1="46" y1="-8" x2="78" y2="4" stroke="#e56b96" stroke-width="6"/><line x1="-6" y1="14" x2="-6" y2="800" stroke="#e56b96" stroke-width="4" opacity="0.8"/><line x1="10" y1="14" x2="10" y2="800" stroke="#e56b96" stroke-width="4" opacity="0.8"/></g><g transform="translate(1120,330)"><ellipse cx="0" cy="0" rx="46" ry="16" fill="#e56b96"/><ellipse cx="34" cy="-10" rx="16" ry="12" fill="#e56b96"/><line x1="46" y1="-8" x2="78" y2="4" stroke="#e56b96" stroke-width="6"/><line x1="-6" y1="14" x2="-6" y2="850" stroke="#e56b96" stroke-width="4" opacity="0.8"/><line x1="10" y1="14" x2="10" y2="850" stroke="#e56b96" stroke-width="4" opacity="0.8"/></g>
<rect width="1600" height="1200" fill="none"/>
</svg>