<svg xmlns="http://www.w3.org/2000/svg" width="1600" height="1200" viewBox="0 0 1600 1200">
<defs><linearGradient id="sky" x1="0" y1="0" x2="0" y2="620" gradientUnits="userSpaceOnUse"><stop offset="0%" stop-color="#dff0e6"/><stop offset="50%" stop-color="#bcdcc9"/><stop offset="100%" stop-color="#8fc0a6"/></linearGradient><linearGradient id="water" x1="0" y1="620" x2="0" y2="1200" gradientUnits="userSpaceOnUse"><stop offset="0%" stop-color="#7fae93"/><stop offset="100%" stop-color="#4f7d66"/></linearGradient><radialGradient id="glow"><stop offset="0%" stop-color="#f4fbf3" stop-opacity="0.95"/><stop offset="100%" stop-color="#f4fbf3" stop-opacity="0"/></radialGradient></defs>
<rect width="1600" height="620" fill="url(#sky)"/>
<rect y="620" width="1600" height="580" fill="url(#water)"/>
<circle cx="800" cy="250" r="165" fill="url(#glow)"/><circle cx="800" cy="250" r="55" fill="#f4fbf3"/><rect x="772.5" y="620" width="55" height="580" fill="#f4fbf3" opacity="0.18"/><path d="M 40 750 Q 48 705 42 660" stroke="#385744" stroke-width="4" fill="none" stroke-linecap="round" opacity="0.85"/><path d="M 131 750 Q 139 681.5 133 613" stroke="#385744" stroke-width="4" fill="none" stroke-linecap="round" opacity="0.85"/><path d="M 192 750 Q 200 658 194 566" stroke="#385744" stroke-width="4" fill="none" stroke-linecap="round" opacity="0.85"/><path d="M 253 750 Q 261 699.5 255 649" stroke="#385744" stroke-width="4" fill="none" stroke-linecap="round" opacity="0.85"/><path d="M 314 750 Q 322 676 316 602" stroke="#385744" stroke-width="4" fill="none" stroke-linecap="round" opacity="0.85"/><path d="M 375 750 Q 383 652.5 377 555" stroke="#385744" stroke-width="4" fill="none" stroke-linecap="round" opacity="0.85"/><path d="M 436 750 Q 444 694 438 638" stroke="#385744" stroke-width="4" fill="none" stroke-linecap="round" opacity="0.85"/><path d="M 497 750 Q 505 670.5 499 591" stroke="#385744" stroke-width="4" fill="none" stroke-linecap="round" opacity="0.85"/><path d="M 558 750 Q 566 647 560 544" stroke="#385744" stroke-width="4" fill="none" stroke-linecap="round" opacity="0.85"/><path d="M 619 750 Q 627 688.5 621 627" stroke="#385744" stroke-width="4" fill="none" stroke-linecap="round" opacity="0.85"/><path d="M 680 750 Q 688 665 682 580" stroke="#385744" stroke-width="4" fill="none" stroke-linecap="round" opacity="0.85"/><path d="M 741 750 Q 749 641.5 743 533" stroke="#385744" stroke-width="4" fill="none" stroke-linecap="round" opacity="0.85"/><path d="M 802 750 Q 810 683 804 616" stroke="#385744" stroke-width="4" fill="none" stroke-linecap="round" opacity="0.85"/><path d="M 863 750 Q 871 659.5 865 569" stroke="#385744" stroke-width="4" fill="none" stroke-linecap="round" opacity="0.85"/><path d="M 924 750 Q 932 701 926 652" stroke="#385744" stroke-width="4" fill="none" stroke-linecap="round" opacity="0.85"/><path d="M 985 750 Q 993 677.5 987 605" stroke="#385744" stroke-width="4" fill="none" stroke-linecap="round" opacity="0.85"/><path d="M 1046 750 Q 1054 654 1048 558" stroke="#385744" stroke-width="4" fill="none" stroke-linecap="round" opacity="0.85"/><path d="M 1107 750 Q 1115 695.5 1109 641" stroke="#385744" stroke-width="4" fill="none" stroke-linecap="round" opacity="0.85"/><path d="M 1168 750 Q 1176 672 1170 594" stroke="#385744" stroke-width="4" fill="none" stroke-linecap="round" opacity="0.85"/><path d="M 1229 750 Q 1237 648.5 1231 547" stroke="#385744" stroke-width="4" fill="none" stroke-linecap="round" opacity="0.85"/><path d="M 1290 750 Q 1298 690 1292 630" stroke="#385744" stroke-width="4" fill="none" stroke-linecap="round" opacity="0.85"/><path d="M 1351 750 Q 1359 666.5 1353 583" stroke="#385744" stroke-width="4" fill="none" stroke-linecap="round" opacity="0.85"/><path d="M 1412 750 Q 1420 643 1414 536" stroke="#385744" stroke-width="4" fill="none" stroke-linecap="round" opacity="0.85"/><path d="M 1473 750 Q 1481 684.5 1475 619" stroke="#385744" stroke-width="4" fill="none" stroke-linecap="round" opacity="0.85"/><path d="M 1534 750 Q 1542 661 1536 572" stroke="#385744" stroke-width="4" fill="none" stroke-linecap="round" opacity="0.85"/><path d="M 1595 750 Q 1603 702.5 1597 655" stroke="#385744" stroke-width="4" fill="none" stroke-linecap="round" opacity="0.85"/><g fill="#2f4a3a">
      <rect x="1120" y="490" width="7" height="130"/>
      <ellipse cx="1146" cy="470" rx="42" ry="20"/>
      <rect x="1142" y="385" width="6" height="95"/>
      <circle cx="1145" cy="380" r="13"/>
      <path d="M 1148 380 L 1190 388 L 1148 390 Z"/>
    </g><path d="M 300 180 Q 330 138 360 180 Q 390 138 420 180" fill="none" stroke-width="9.6" stroke-linecap="round"/><g stroke="#3a5646" fill="none"><path d="M 300 170 Q 330 128 360 170 Q 390 128 420 170" fill="none" stroke-width="9.6" stroke-linecap="round"/><path d="M 476 210 Q 498 179.2 520 210 Q 542 179.2 564 210" fill="none" stroke-width="7.04" stroke-linecap="round"/></g>
<rect width="1600" height="1200" fill="none"/>
</svg>